<?xml version="1.0" standalone="no"?>
<!DOCTYPE svg PUBLIC "-//W3C//DTD SVG 20010904//EN"
 "http://www.w3.org/TR/2001/REC-SVG-20010904/DTD/svg10.dtd">
<svg version="1.0" xmlns="http://www.w3.org/2000/svg"
 width="339.000000pt" height="339.000000pt" viewBox="0 0 339.000000 339.000000"
 preserveAspectRatio="xMidYMid meet">
<metadata>
Created by potrace 1.11, written by Peter Selinger 2001-2013
</metadata>
<g transform="translate(0.000000,339.000000) scale(0.100000,-0.100000)"
fill="#000000" stroke="none">
<path d="M1249 3073 c-92 -97 -158 -226 -205 -403 -25 -93 -26 -362 -1 -439 9
-30 17 -55 17 -56 0 -1 -48 -5 -107 -8 -186 -9 -315 -69 -443 -203 -76 -80
-138 -190 -159 -284 -17 -71 -13 -243 6 -315 l17 -63 -41 -64 c-86 -135 -136
-243 -187 -403 -61 -192 -120 -495 -100 -515 20 -20 168 -40 300 -40 187 0
430 36 689 101 148 38 320 92 369 117 73 36 156 124 195 207 l34 71 78 -52
c48 -31 113 -63 167 -80 77 -26 101 -29 212 -29 134 1 200 15 292 61 27 14 47
19 46 13 -4 -17 95 -55 192 -75 152 -30 388 -4 607 67 51 17 95 35 98 39 3 5
-9 38 -26 72 -108 215 -334 460 -475 517 -29 11 -32 17 -38 72 -24 236 -171
445 -386 553 -51 25 -98 46 -106 46 -11 0 -14 16 -14 68 0 200 -123 391 -310
481 -46 23 -89 41 -95 41 -6 0 -19 17 -29 38 -59 124 -217 315 -337 408 -72
55 -170 114 -190 114 -9 0 -40 -26 -70 -57z"/>
</g>
</svg>
